<svg width="200" height="200" viewBox="0 0 200 200" fill="none" xmlns="http://www.w3.org/2000/svg">
    <rect width="200" height="200" fill="#EFF0F3"/>
    <path d="M129.167 62.5H70.8333C66.231 62.5 62.5 66.231 62.5 70.8333V129.167C62.5 133.769 66.231 137.5 70.8333 137.5H129.167C133.769 137.5 137.5 133.769 137.5 129.167V70.8333C137.5 66.231 133.769 62.5 129.167 62.5Z" stroke="#62636C" stroke-width="4" stroke-linecap="round" stroke-linejoin="round"/>
    <path d="M87.5 95.8333C92.1024 95.8333 95.8333 92.1024 95.8333 87.5C95.8333 82.8976 92.1024 79.1667 87.5 79.1667C82.8976 79.1667 79.1667 82.8976 79.1667 87.5C79.1667 92.1024 82.8976 95.8333 87.5 95.8333Z" stroke="#62636C" stroke-width="4" stroke-linecap="round" stroke-linejoin="round"/>
    <path d="M137.5 112.5L124.642 99.6417C123.079 98.0794 120.96 97.2018 118.75 97.2018C116.54 97.2018 114.421 98.0794 112.858 99.6417L75 137.5" stroke="#62636C" stroke-width="4" stroke-linecap="round" stroke-linejoin="round"/>
</svg>
    